{"title":"Winners.And.Losers.S03E03.PDTV.x264-Juddsie.mp4","uid":8872820,"size":306375710,"categoryP":"video","categoryS":"tv_shows","magnet":"?xt=urn:btih:14788297f41c2c6a22cdb70fe388133419998225&amp;dn=Winners.And.Losers.S03E03.PDTV.x264-Juddsie.mp4&amp;tr=udp%3A%2F%2Ftracker.openbittorrent.com%3A80&amp;tr=udp%3A%2F%2Fopen.demonii.com%3A1337&amp;tr=udp%3A%2F%2Ftracker.coppersurfer.tk%3A6969&amp;tr=udp%3A%2F%2Fexodus.desync.com%3A6969","seeders":1,"leechers":1,"uploader":"SmithyWASD","files":1,"time":1378109446,"description":"Format                                   : MPEG-4\nFormat profile                           : Base Media\nCodec ID                                 : isom\nFile size                                : 292 MiB\nDuration                                 : 41mn 17s\nOverall bit rate mode                    : Variable\nOverall bit rate                         : 989 Kbps\nEncoded date                             : UTC 2013-07-23 12:37:08\nTagged date                              : UTC 2013-07-23 12:37:08\n\nVideo\nID                                       : 1\nFormat                                   : AVC\nFormat/Info                              : Advanced Video Codec\nFormat profile                           : &lt;a class=&quot;__cf_email__&quot; href=&quot;/cdn-cgi/l/email-protection&quot; data-cfemail=&quot;8fc7e6e8e7cfc3bca1bf&quot;&gt;[email&amp;#160;protected]&lt;/a&gt;&lt;script cf-hash='f9e31' type=&quot;text/javascript&quot;&gt;\n/* &lt;![CDATA[ */!function(){try{var t=&quot;currentScript&quot;in document?document.currentScript:function(){for(var t=document.getElementsByTagName(&quot;script&quot;),e=t.length;e--;)if(t[e].getAttribute(&quot;cf-hash&quot;))return t[e]}();if(t&amp;&amp;t.previousSibling){var e,r,n,i,c=t.previousSibling,a=c.getAttribute(&quot;data-cfemail&quot;);if(a){for(e=&quot;&quot;,r=parseInt(a.substr(0,2),16),n=2;a.length-n;n+=2)i=parseInt(a.substr(n,2),16)^r,e+=String.fromCharCode(i);e=document.createTextNode(e),c.parentNode.replaceChild(e,c)}}}catch(u){}}();/* ]]&gt; */&lt;/script&gt;\nFormat settings, CABAC                   : Yes\nFormat settings, ReFrames                : 4 frames\nCodec ID                                 : avc1\nCodec ID/Info                            : Advanced Video Coding\nDuration                                 : 41mn 17s\nBit rate                                 : 850 Kbps\nMaximum bit rate                         : 3 711 Kbps\nWidth                                    : 720 pixels\nHeight                                   : 400 pixels\nDisplay aspect ratio                     : 16:9\nFrame rate mode                          : Constant\nFrame rate                               : 25.000 fps\nColor space                              : YUV\nChroma subsampling                       : 4:2:0\nBit depth                                : 8 bits\nScan type                                : Progressive\nBits/(Pixel*Frame)                       : 0.118\nStream size                              : 253 MiB (87%)\nTitle                                    : Video\nWriting library                          : x264 core 133 r2334 a3ac64b\n\nAudio\nID                                       : 2\nFormat                                   : AAC\nFormat/Info                              : Advanced Audio Codec\nFormat profile                           : LC\nCodec ID                                 : 40\nDuration                                 : 41mn 17s\nBit rate mode                            : Variable\nBit rate                                 : 128 Kbps\nMaximum bit rate                         : 135 Kbps\nChannel(s)                               : 2 channels\nChannel positions                        : Front: L R\nSampling rate                            : 48.0 KHz\nCompression mode                         : Lossy\nDelay relative to video                  : 80ms\nStream size                              : 37.8 MiB (13%)\nLanguage                                 : English\nEncoded date                             : UTC 2013-07-23 12:37:13\nTagged date                              : UTC 2013-07-23 12:37:14\n\n------------------------------------------------------------------\n\nTo keep your Misses happy..\n\n","torrent":{"xt":"urn:btih:14788297f41c2c6a22cdb70fe388133419998225","amp;dn":"Winners.And.Losers.S03E03.PDTV.x264-Juddsie.mp4","amp;tr":["udp%3A%2F%2Ftracker.openbittorrent.com%3A80","udp%3A%2F%2Fopen.demonii.com%3A1337","udp%3A%2F%2Ftracker.coppersurfer.tk%3A6969","udp%3A%2F%2Fexodus.desync.com%3A6969"],"infoHash":"14788297f41c2c6a22cdb70fe388133419998225","infoHashBuffer":{"type":"Buffer","data":[20,120,130,151,244,28,44,106,34,205,183,15,227,136,19,52,25,153,130,37]},"announce":[],"urlList":[]}}